<svg xmlns="http://www.w3.org/2000/svg" width="107" height="107" viewBox="0 0 107 107">
  <g id="Group_731" data-name="Group 731" transform="translate(-140 -1464)">
    <rect id="Rectangle_133" data-name="Rectangle 133" width="101" height="101" transform="translate(146 1470)" fill="#ffcb05"/>
    <rect id="Rectangle_134" data-name="Rectangle 134" width="100" height="100" transform="translate(140 1464)" fill="#fff"/>
    <g id="product" transform="translate(167 1488)">
      <path id="Path_762" data-name="Path 762" d="M122.8,27.345h18.163a1.513,1.513,0,0,0,1.514-1.514V7.568a1.513,1.513,0,0,0-1.514-1.514h-4.541V4.541a4.541,4.541,0,0,0-9.081,0V6.054H122.8a1.513,1.513,0,0,0-1.514,1.514V25.832A1.513,1.513,0,0,0,122.8,27.345Zm7.568-22.8a1.514,1.514,0,1,1,3.027,0V6.054H130.37Zm0,0" transform="translate(-109.051)" fill="#666"/>
      <path id="Path_763" data-name="Path 763" d="M44.884,241.73a1.514,1.514,0,0,0-1.295-.73,7.171,7.171,0,0,0-6.351,3.842L32.594,253.7a4.531,4.531,0,0,1-4.023,2.433H18.292a1.514,1.514,0,1,1,0-3.027H28.571a1.512,1.512,0,0,0,1.343-.812l1.735-3.311a1.319,1.319,0,0,0-1.17-1.931H14.745a7.52,7.52,0,0,0-5.351,2.217L.443,258.222a1.513,1.513,0,0,0,0,2.14L8.011,267.9a1.512,1.512,0,0,0,2.14,0l5.741-5.712H28.571a10.57,10.57,0,0,0,9.386-5.677l6.971-13.3a1.508,1.508,0,0,0-.044-1.487Zm0,0" transform="translate(0 -216.682)" fill="#666"/>
    </g>
  </g>
</svg>
