<svg xmlns="http://www.w3.org/2000/svg" width="107" height="107" viewBox="0 0 107 107">
  <g id="Group_732" data-name="Group 732" transform="translate(-140 -1119)">
    <rect id="Rectangle_133" data-name="Rectangle 133" width="101" height="101" transform="translate(146 1125)" fill="#ffcb05"/>
    <rect id="Rectangle_134" data-name="Rectangle 134" width="100" height="100" transform="translate(140 1119)" fill="#fff"/>
    <g id="XMLID_2_" transform="translate(139.727 1141)">
      <g id="Group_728" data-name="Group 728" transform="translate(25.274)">
        <g id="Group_727" data-name="Group 727">
          <path id="Path_749" data-name="Path 749" d="M66.649,282.392a12.372,12.372,0,0,1-10.015,5.11h-5.77a4.61,4.61,0,0,1-4.333-3.036,14.636,14.636,0,0,1-2.331-.921,15.694,15.694,0,0,1-4.353-3.222,18.584,18.584,0,0,0-14.574,18.144v1.161a2.891,2.891,0,0,0,2.891,2.891H73.018a2.891,2.891,0,0,0,2.891-2.891v-1.161A18.571,18.571,0,0,0,66.649,282.392Z" transform="translate(-25.274 -245.629)" fill="#666"/>
          <path id="Path_750" data-name="Path 750" d="M94.9,28.736a3.291,3.291,0,0,0,2.884-1.7l.045.12.013.036a12.848,12.848,0,0,0,7.244,7.627,4.6,4.6,0,0,1,3.9-2.158h5.77a3.23,3.23,0,0,0,1.581-.425,6.52,6.52,0,0,0,1.864-2.153,16.637,16.637,0,0,0,1.443-3.05,3.308,3.308,0,0,0,.91,1.048v1.415a5.8,5.8,0,0,1-5.8,5.8h-5.77a1.975,1.975,0,1,0,0,3.95h5.77a9.759,9.759,0,0,0,9.748-9.748V28.077a3.287,3.287,0,0,0,1.317-2.633V17.2a3.286,3.286,0,0,0-1.367-2.669,15.791,15.791,0,0,0-31.482,0A3.287,3.287,0,0,0,91.608,17.2v8.239A3.293,3.293,0,0,0,94.9,28.736ZM108.716,3.95A11.857,11.857,0,0,1,120.5,14.617a3.3,3.3,0,0,0-.925,1.143c-1.864-4.862-6.024-8.248-10.857-8.248-4.938,0-9.031,3.5-10.85,8.228l-.007.02a3.3,3.3,0,0,0-.925-1.143A11.858,11.858,0,0,1,108.716,3.95Z" transform="translate(-83.398)" fill="#666"/>
        </g>
      </g>
    </g>
  </g>
</svg>
