<svg xmlns="http://www.w3.org/2000/svg" width="107" height="107" viewBox="0 0 107 107">
  <g id="Group_734" data-name="Group 734" transform="translate(-1244 -1119)">
    <rect id="Rectangle_133" data-name="Rectangle 133" width="101" height="101" transform="translate(1250 1125)" fill="#ffcb05"/>
    <rect id="Rectangle_134" data-name="Rectangle 134" width="100" height="100" transform="translate(1244 1119)" fill="#fff"/>
    <g id="high" transform="translate(1270 1145)">
      <path id="Path_757" data-name="Path 757" d="M12.536,30.041H3.505A1.506,1.506,0,0,1,2,28.536V19.505A1.506,1.506,0,0,1,3.505,18h9.031a1.506,1.506,0,0,1,1.505,1.505v9.031A1.506,1.506,0,0,1,12.536,30.041Z" transform="translate(2.014 18.123)" fill="#666"/>
      <path id="Path_758" data-name="Path 758" d="M20.536,35.075H11.505A1.506,1.506,0,0,1,10,33.57V14.505A1.506,1.506,0,0,1,11.505,13h9.031a1.506,1.506,0,0,1,1.505,1.505V33.57A1.506,1.506,0,0,1,20.536,35.075Z" transform="translate(10.068 13.089)" fill="#666"/>
      <path id="Path_759" data-name="Path 759" d="M28.536,40.109H19.505A1.506,1.506,0,0,1,18,38.6V9.505A1.506,1.506,0,0,1,19.505,8h9.031a1.506,1.506,0,0,1,1.505,1.505V38.6A1.506,1.506,0,0,1,28.536,40.109Z" transform="translate(18.123 8.055)" fill="#666"/>
      <path id="Path_760" data-name="Path 760" d="M29.014.3a1.039,1.039,0,0,0-.728-.3C22.612.107,15.993,3.418,11.791,8.228c-4.547.163-8.34,1.533-10.706,3.9a1,1,0,0,0,.476,1.686l4.273,1.023-.026.028a1,1,0,0,0,.036,1.381l7.219,7.219a1.005,1.005,0,0,0,1.381.036l.028-.026,1.023,4.273a1,1,0,0,0,.7.732.974.974,0,0,0,.273.038,1.008,1.008,0,0,0,.71-.293c2.368-2.368,3.737-6.161,3.9-10.708C25.9,13.3,29.2,6.689,29.309,1.022a1.016,1.016,0,0,0-.3-.726Z" transform="translate(0.796)" fill="#666"/>
      <path id="Path_761" data-name="Path 761" d="M3.444,10.959C2.1,12.306.373,17.9.042,19.007A1,1,0,0,0,1,20.3a1.028,1.028,0,0,0,.289-.042c1.108-.331,6.7-2.053,8.047-3.4a4.168,4.168,0,1,0-5.9-5.894Z" transform="translate(0 9.806)" fill="#666"/>
    </g>
  </g>
</svg>
