<svg xmlns="http://www.w3.org/2000/svg" width="107" height="107" viewBox="0 0 107 107">
  <g id="Group_731" data-name="Group 731" transform="translate(-1244 -1464)">
    <rect id="Rectangle_133" data-name="Rectangle 133" width="101" height="101" transform="translate(1250 1470)" fill="#ffcb05"/>
    <rect id="Rectangle_134" data-name="Rectangle 134" width="100" height="100" transform="translate(1244 1464)" fill="#fff"/>
    <g id="XMLID_255_" transform="translate(1264.814 1484.813)">
      <path id="XMLID_821_" d="M215.226,307.5A5.231,5.231,0,0,0,210,312.726v2.53a14.7,14.7,0,0,0,3.484.851v4.757a5.226,5.226,0,1,0,3.484,0v-4.757a14.7,14.7,0,0,0,3.484-.851v-2.53A5.231,5.231,0,0,0,215.226,307.5Z" transform="translate(-185.614 -271.792)" fill="#666"/>
      <circle id="XMLID_1089_" cx="2.613" cy="2.613" r="2.613" transform="translate(26.999 26.999)" fill="#666"/>
      <path id="XMLID_1090_" d="M44.314,31.353h4.757a5.226,5.226,0,1,0,0-3.484H44.314a14.736,14.736,0,0,0-3.079-7.419l4.494-4.494a7.689,7.689,0,1,0-2.463-2.463l-4.494,4.494a14.736,14.736,0,0,0-7.419-3.079V10.152a5.226,5.226,0,1,0-3.484,0v4.757a14.735,14.735,0,0,0-7.419,3.079l-4.494-4.494a7.689,7.689,0,1,0-2.463,2.463l4.494,4.494a14.737,14.737,0,0,0-3.079,7.419H10.152a5.226,5.226,0,1,0,0,3.484h4.757a14.735,14.735,0,0,0,3.081,7.417l-4.5,4.5a7.689,7.689,0,1,0,2.463,2.463L20.9,40.782a8.706,8.706,0,0,1,4.072-7.216,6.1,6.1,0,1,1,9.27,0,8.706,8.706,0,0,1,4.072,7.216l4.948,4.948a7.689,7.689,0,1,0,2.463-2.463l-4.5-4.5A14.735,14.735,0,0,0,44.314,31.353Z" fill="#666"/>
    </g>
  </g>
</svg>
