<svg xmlns="http://www.w3.org/2000/svg" width="107" height="107" viewBox="0 0 107 107">
  <g id="Group_731" data-name="Group 731" transform="translate(-685 -1464)">
    <rect id="Rectangle_133" data-name="Rectangle 133" width="101" height="101" transform="translate(691 1470)" fill="#ffcb05"/>
    <rect id="Rectangle_134" data-name="Rectangle 134" width="100" height="100" transform="translate(685 1464)" fill="#fff"/>
    <g id="marketing-strategy" transform="translate(707.641 1488)">
      <g id="Group_730" data-name="Group 730" transform="translate(3.359)">
        <g id="Group_729" data-name="Group 729">
          <path id="Path_764" data-name="Path 764" d="M40.2,32.012a6.7,6.7,0,1,0-8.983,6.243L22.847,60.487h10.66V32.012L32.9,33.687a2.021,2.021,0,0,1-1.218-1.675,1.827,1.827,0,1,1,3.655,0,1.782,1.782,0,0,1-1.217,1.675l1.674,4.72A6.946,6.946,0,0,0,40.2,32.012Z" transform="translate(-9.599 -8.106)" fill="#666"/>
          <path id="Path_765" data-name="Path 765" d="M46.662,27.923a15.38,15.38,0,1,0-30.759,0,15.244,15.244,0,0,0,9.9,14.313l1.675-4.719a10.228,10.228,0,0,1-6.7-9.592,10.354,10.354,0,1,1,20.708,0,10.078,10.078,0,0,1-6.7,9.592l1.676,4.719A15.306,15.306,0,0,0,46.662,27.923Z" transform="translate(-7.376 -4.016)" fill="#666"/>
          <path id="Path_766" data-name="Path 766" d="M27.266,0a23.9,23.9,0,0,0-8.375,46.291l1.675-4.72a18.885,18.885,0,1,1,25.58-17.663A19.1,19.1,0,0,1,33.964,41.57l1.676,4.72A23.9,23.9,0,0,0,27.266,0Z" transform="translate(-3.359)" fill="#666"/>
        </g>
      </g>
    </g>
  </g>
</svg>
