<svg xmlns="http://www.w3.org/2000/svg" width="107" height="107" viewBox="0 0 107 107">
  <g id="Group_733" data-name="Group 733" transform="translate(-687 -1119)">
    <rect id="Rectangle_133" data-name="Rectangle 133" width="101" height="101" transform="translate(693 1125)" fill="#ffcb05"/>
    <rect id="Rectangle_134" data-name="Rectangle 134" width="100" height="100" transform="translate(687 1119)" fill="#fff"/>
    <g id="Solid" transform="translate(664.527 1078)">
      <path id="Path_751" data-name="Path 751" d="M61.6,117.436l-2.784,2.784a3.575,3.575,0,1,1-5.056-5.056l.769-.769H49.28a4.587,4.587,0,0,1-4.582-4.582v-4.376l-3.225,4.62L56,135.219l11.9-6.873Zm-4.766,14.653-1.145-1.984,1.984-1.145,1.145,1.984Z" transform="translate(0 -35.505)" fill="#666"/>
      <path id="Path_752" data-name="Path 752" d="M243.345,82.229a3.575,3.575,0,1,1,6.907-1.851l.281,1.051,2.626-4.549a4.587,4.587,0,0,1,6.259-1.677l3.961,2.287L261.026,72H232V85.745h12.287Zm-6.763-5.648h-2.291V74.291h2.291Z" transform="translate(-163.248 -6.855)" fill="#666"/>
      <path id="Path_753" data-name="Path 753" d="M82.291,76.6h8.018a1.145,1.145,0,0,1,.81,1.955l-2.725,2.725A1.284,1.284,0,1,0,90.211,83.1l6.161-6.161a1.145,1.145,0,0,1,.81-.335h2.291V67.436H97.181a1.145,1.145,0,0,1-.81-.335A10.517,10.517,0,0,0,88.885,64H82.291A2.294,2.294,0,0,0,80,66.291v8.018A2.294,2.294,0,0,0,82.291,76.6Z" transform="translate(-33.011)" fill="#666"/>
      <path id="Path_754" data-name="Path 754" d="M181.316,302.169l-4.009-6.944a1.145,1.145,0,0,1,1.289-1.679l3.723,1a1.284,1.284,0,1,0,.665-2.481l-8.416-2.255a1.145,1.145,0,0,1-.7-.534l-1.145-1.984-7.936,4.582,1.145,1.984a1.145,1.145,0,0,1,.115.869,10.517,10.517,0,0,0,1.058,8.033l3.3,5.711a2.291,2.291,0,0,0,3.129.839l6.944-4.009A2.293,2.293,0,0,0,181.316,302.169Z" transform="translate(-105.662 -191.319)" fill="#666"/>
      <path id="Path_755" data-name="Path 755" d="M346.087,110.406l-6.944-4.009a2.293,2.293,0,0,0-3.129.838L332,114.18a1.145,1.145,0,0,1-2.1-.276l-1-3.722a1.284,1.284,0,1,0-2.481.665l2.255,8.416a1.145,1.145,0,0,1-.115.869l-1.145,1.984,7.936,4.582,1.145-1.984a1.145,1.145,0,0,1,.7-.534,10.517,10.517,0,0,0,6.429-4.932l3.3-5.711A2.293,2.293,0,0,0,346.087,110.406Z" transform="translate(-244.118 -36.065)" fill="#666"/>
      <path id="Path_756" data-name="Path 756" d="M256.782,234.473l3.862,1.035a3.575,3.575,0,1,1-1.851,6.907l-1.051-.282,2.626,4.549a4.587,4.587,0,0,1-1.677,6.259l-3.954,2.283,5.558.654L274.81,230.74l-11.9-6.873Zm12.914-4.041,1.984,1.145-1.145,1.984-1.984-1.145Z" transform="translate(-182.73 -136.978)" fill="#666"/>
    </g>
  </g>
</svg>
