<svg xmlns="http://www.w3.org/2000/svg" width="23.536" height="23.963" viewBox="0 0 23.536 23.963" fill="red">
  <g id="map" transform="translate(-4.565)">
    <g id="Group_622" data-name="Group 622" transform="translate(7.198 17.477)">
      <g id="Group_621" data-name="Group 621">
        <path id="Path_738" data-name="Path 738" d="M78.546,378.489l-9.425-4.99a.756.756,0,0,0-.777.045l-7.207,4.99a.749.749,0,0,0,.425,1.364H78.194a.749.749,0,0,0,.352-1.409Z" transform="translate(-60.814 -373.413)" fill="#ffcb05"/>
      </g>
    </g>
    <g id="Group_624" data-name="Group 624" transform="translate(17.179 10.566)">
      <g id="Group_623" data-name="Group 623">
        <path id="Path_739" data-name="Path 739" d="M284.974,236.309l-2.217-9.979a.75.75,0,0,0-1.158-.454l-7.208,4.99a.748.748,0,0,0,.076,1.276l9.424,4.99a.751.751,0,0,0,.35.088.739.739,0,0,0,.454-.154A.75.75,0,0,0,284.974,236.309Z" transform="translate(-274.069 -225.744)" fill="#ffcb05"/>
      </g>
    </g>
    <g id="Group_626" data-name="Group 626" transform="translate(5.043 8.986)">
      <g id="Group_625" data-name="Group 625" transform="translate(0)">
        <path id="Path_740" data-name="Path 740" d="M32.609,192.526a.751.751,0,0,0-.716-.526H25.058a31.256,31.256,0,0,1-3.839,5.245,2.246,2.246,0,0,1-3.343,0c-.292-.325-.744-.845-1.263-1.489L14.8,203.913a.748.748,0,0,0,.731.911.742.742,0,0,0,.427-.133l16.359-11.327A.746.746,0,0,0,32.609,192.526Z" transform="translate(-14.784 -192)" fill="#ffcb05"/>
      </g>
    </g>
    <g id="Group_628" data-name="Group 628" transform="translate(4.565)">
      <g id="Group_627" data-name="Group 627" transform="translate(0)">
        <path id="Path_741" data-name="Path 741" d="M9.807,0A5.248,5.248,0,0,0,4.565,5.242c0,2.69,4.206,7.454,4.685,7.989a.749.749,0,0,0,1.114,0c.479-.535,4.685-5.3,4.685-7.989A5.248,5.248,0,0,0,9.807,0Zm0,7.489a2.247,2.247,0,1,1,2.247-2.247A2.247,2.247,0,0,1,9.807,7.489Z" transform="translate(-4.565)" fill="#ffcb05"/>
      </g>
    </g>
  </g>
</svg>
