<svg xmlns="http://www.w3.org/2000/svg" width="38.732" height="59.272" viewBox="0 0 38.732 59.272">
  <path id="computer-mouse" d="M93.385,0H88.839c-9.4,0-16.756,7.657-16.756,17.432V41.838c0,9.776,7.36,17.434,16.756,17.434h4.547a17.452,17.452,0,0,0,17.43-17.434V17.432A17.451,17.451,0,0,0,93.385,0ZM91.273,9.135h.352a1,1,0,0,1,1,1v7.1a1,1,0,0,1-1,1h-.352a1,1,0,0,1-1-1v-7.1A1,1,0,0,1,91.273,9.135Zm17.263,32.7A15.17,15.17,0,0,1,93.385,56.992H88.839c-8.118,0-14.476-6.657-14.476-15.154V17.432c0-8.5,6.359-15.152,14.476-15.152H90.3V7A3.283,3.283,0,0,0,88,10.133v7.1a3.283,3.283,0,0,0,2.3,3.128v5.865a1.14,1.14,0,0,0,2.28,0V20.368A3.282,3.282,0,0,0,94.9,17.232v-7.1A3.283,3.283,0,0,0,92.575,7V2.28h.81a15.169,15.169,0,0,1,15.151,15.152Z" transform="translate(-72.083)" fill="#fff"/>
</svg>
